<svg width="67" height="66" viewBox="0 0 67 66" fill="none" xmlns="http://www.w3.org/2000/svg">
<rect x="0.5" width="66" height="66" rx="20" fill="#0054A6" fill-opacity="0.3"/>
<path fill-rule="evenodd" clip-rule="evenodd" d="M39.4066 46.6156H27.5805C23.2365 46.6156 19.9039 45.0466 20.8505 38.7316L21.9527 30.1732C22.5362 27.0222 24.5462 25.8162 26.3097 25.8162H40.7292C42.5187 25.8162 44.4119 27.1129 45.0862 30.1732L46.1884 38.7316C46.9924 44.3334 43.7506 46.6156 39.4066 46.6156Z" stroke="#0054A6" stroke-width="2" stroke-linecap="round" stroke-linejoin="round"/>
<path d="M39.6011 25.505C39.6011 22.1248 36.8608 19.3845 33.4806 19.3845C31.8528 19.3776 30.2894 20.0194 29.1359 21.168C27.9825 22.3165 27.3341 23.8773 27.3341 25.505" stroke="#0054A6" stroke-width="2" stroke-linecap="round" stroke-linejoin="round"/>
<path d="M37.6819 31.8849H37.6171" stroke="#0054A6" stroke-width="2" stroke-linecap="round" stroke-linejoin="round"/>
<path d="M29.4218 31.8849H29.357" stroke="#0054A6" stroke-width="2" stroke-linecap="round" stroke-linejoin="round"/>
</svg>
