<svg width="50" height="50" viewBox="0 0 50 50" fill="none" xmlns="http://www.w3.org/2000/svg">
<path fill-rule="evenodd" clip-rule="evenodd" d="M33.454 24.1411L36.0107 20.7351C37.2774 19.0476 37.8107 16.9684 37.5128 14.8789C37.2149 12.7893 36.1232 10.9434 34.4357 9.67678C30.9545 7.06427 25.992 7.76636 23.3774 11.2518L9.31068 29.9913C5.11902 35.5809 8.84818 42.2392 9.0086 42.5205C9.22527 42.8975 9.58985 43.1663 10.0149 43.2642C10.1357 43.2934 11.3024 43.5517 12.9294 43.5517C15.5607 43.5517 19.3899 42.8788 21.944 39.4746L33.1286 24.5746C33.1936 24.5136 33.2542 24.4459 33.3097 24.3721C33.3653 24.2982 33.4134 24.2209 33.454 24.1411ZM11.4107 40.3288C13.0378 40.5267 17.1419 40.6663 19.444 37.5975L29.8526 23.7313L22.2178 17.9991L11.8086 31.8663C9.46068 34.9996 10.7524 38.835 11.4107 40.3288ZM24.0932 15.5009L31.729 21.2315L33.5107 18.858C35.092 16.7539 34.6649 13.7559 32.5607 12.1747C30.4545 10.5976 27.4545 11.0247 25.8753 13.1268L24.0932 15.5009Z" fill="white"/>
<path d="M41.1106 43.0062H27.8252C26.9627 43.0062 26.2627 42.3062 26.2627 41.4437C26.2627 40.5812 26.9627 39.8812 27.8252 39.8812H41.1106C41.9731 39.8812 42.6731 40.5812 42.6731 41.4437C42.6731 42.3062 41.9731 43.0062 41.1106 43.0062Z" fill="white"/>
</svg>
