<svg width="24" height="24" viewBox="0 0 24 24" fill="none" xmlns="http://www.w3.org/2000/svg">
<path d="M4.28571 3.9L8.89492 3.9L8.895 3.9V4C9.06466 3.99986 9.23266 4.03454 9.38934 4.10205C9.54601 4.16956 9.68825 4.26855 9.80786 4.39333L4.28571 3.9ZM4.28571 3.9C3.917 3.9 3.56416 4.05193 3.30459 4.32111C3.04514 4.59017 2.9 4.95434 2.9 5.33333V18.6667C2.9 19.0457 3.04514 19.4098 3.30459 19.6789C3.56416 19.9481 3.917 20.1 4.28571 20.1H19.7143C20.083 20.1 20.4358 19.9481 20.6954 19.6789C20.9549 19.4098 21.1 19.0457 21.1 18.6667V8C21.1 7.62101 20.9549 7.25684 20.6954 6.98778C20.4358 6.7186 20.083 6.56667 19.7143 6.56667H12.0425L9.88005 4.32413C9.88002 4.3241 9.87998 4.32407 9.87995 4.32403L4.28571 3.9ZM11.3939 8.0688L11.4234 8.1H11.4664H19.6143V18.5667H4.38571V5.43333H8.8526L11.021 7.67546L11.0217 7.67619L11.3939 8.0688Z" fill="#3B3B3B" stroke="#3B3B3B" stroke-width="0.2"/>
</svg>
