<svg width="22" height="22" viewBox="0 0 22 22" fill="none" xmlns="http://www.w3.org/2000/svg">
<path d="M14 16C13.2 16.622 12.15 17 11 17C9.85 17 8.8 16.622 8 16" stroke="#3B3B3B" stroke-width="1.6" stroke-linecap="round" stroke-linejoin="round"/>
<path d="M1.35198 12.214C0.997981 9.916 0.821981 8.768 1.25598 7.749C1.68998 6.73 2.65398 6.034 4.58098 4.641L6.02098 3.6C8.41798 1.867 9.61698 1 11.001 1C12.383 1 13.581 1.867 15.979 3.6L17.419 4.641C19.346 6.034 20.309 6.731 20.744 7.749C21.178 8.768 21.002 9.916 20.649 12.213L20.348 14.173C19.848 17.429 19.597 19.057 18.429 20.029C17.261 21.001 15.554 21 12.14 21H9.85998C6.44498 21 4.73798 21 3.56998 20.029C2.40198 19.057 2.15198 17.429 1.65198 14.172L1.35198 12.214Z" stroke="#3B3B3B" stroke-width="1.6" stroke-linecap="round" stroke-linejoin="round"/>
</svg>
