<svg width="20" height="20" viewBox="0 0 20 20" fill="none" xmlns="http://www.w3.org/2000/svg">
<path d="M10.0002 1.99982C11.5951 1.99985 13.1536 2.47661 14.4755 3.36888C15.7975 4.26114 16.8226 5.52818 17.4192 7.0073C18.0158 8.48642 18.1567 10.1101 17.8237 11.6699C17.4908 13.2296 16.6992 14.6543 15.5506 15.7609C14.4021 16.8675 12.949 17.6055 11.3779 17.8802C9.80684 18.155 8.18952 17.9538 6.73361 17.3026C5.2777 16.6514 4.04966 15.5799 3.20718 14.2257C2.3647 12.8714 1.94623 11.2963 2.00551 9.70248C2.01105 9.57076 1.9905 9.43925 1.94503 9.31551C1.89956 9.19176 1.83007 9.07823 1.74056 8.98144C1.65105 8.88465 1.54329 8.80652 1.42347 8.75154C1.30365 8.69655 1.17414 8.6658 1.04239 8.66106C0.910645 8.65631 0.77926 8.67766 0.655795 8.72388C0.53233 8.7701 0.419222 8.84028 0.32298 8.93038C0.226738 9.02047 0.14926 9.12871 0.0950048 9.24886C0.0407492 9.36901 0.0107866 9.4987 0.00684081 9.63048C-0.078397 11.9344 0.635081 14.197 2.0265 16.0354C3.41792 17.8737 5.4018 19.1747 7.64233 19.7183C9.88286 20.2618 12.2424 20.0145 14.3215 19.0182C16.4006 18.0219 18.0716 16.3377 19.0516 14.2509C20.0316 12.164 20.2604 9.80259 19.6993 7.5664C19.1382 5.3302 17.8216 3.35658 15.9725 1.97962C14.1233 0.602653 11.8551 -0.093062 9.55194 0.0102383C7.24874 0.113539 5.05197 1.00951 3.33351 2.54648V0.999816C3.33351 0.7346 3.22815 0.480246 3.04061 0.29271C2.85308 0.105174 2.59872 -0.000183105 2.33351 -0.000183105C2.06829 -0.000183105 1.81394 0.105174 1.6264 0.29271C1.43886 0.480246 1.33351 0.7346 1.33351 0.999816V4.99981C1.33351 5.55181 1.78151 5.99981 2.33351 5.99981H6.3335C6.59872 5.99981 6.85307 5.89446 7.04061 5.70692C7.22815 5.51938 7.3335 5.26503 7.3335 4.99981C7.3335 4.7346 7.22815 4.48024 7.04061 4.29271C6.85307 4.10517 6.59872 3.99981 6.3335 3.99981H4.70817C6.16841 2.70872 8.05101 1.99723 10.0002 1.99982ZM10.6668 4.99981C10.6668 4.7346 10.5615 4.48024 10.3739 4.29271C10.1864 4.10517 9.93205 3.99981 9.66683 3.99981C9.40162 3.99981 9.14727 4.10517 8.95973 4.29271C8.77219 4.48024 8.66684 4.7346 8.66684 4.99981V10.3331C8.66684 10.8851 9.11484 11.3331 9.66683 11.3331H13.6668C13.932 11.3331 14.1864 11.2278 14.3739 11.0402C14.5615 10.8527 14.6668 10.5984 14.6668 10.3331C14.6668 10.0679 14.5615 9.81357 14.3739 9.62604C14.1864 9.4385 13.932 9.33315 13.6668 9.33315H10.6668V4.99981Z" fill="#0054A6"/>
</svg>
