<svg width="24" height="24" viewBox="0 0 24 24" fill="none" xmlns="http://www.w3.org/2000/svg">
<path d="M17.5242 14.2077L14.8307 17.4549C14.6989 17.6198 14.6229 17.8444 14.619 18.0804C14.6151 18.3163 14.6837 18.5448 14.81 18.7167C14.9363 18.8885 15.1102 18.99 15.2943 18.9993C15.4785 19.0086 15.6581 18.9249 15.7945 18.7663L19.7789 13.9627C19.8487 13.8785 19.9043 13.7769 19.9424 13.6641C19.9804 13.5514 20 13.4298 20 13.307C20 13.1842 19.9804 13.0626 19.9424 12.9499C19.9043 12.8371 19.8487 12.7355 19.7789 12.6513L15.7945 7.84769C15.7277 7.76409 15.6485 7.69839 15.5616 7.65442C15.4747 7.61045 15.3819 7.5891 15.2885 7.59162C15.1951 7.59414 15.103 7.62047 15.0176 7.66908C14.9323 7.71769 14.8553 7.7876 14.7913 7.87473C14.7273 7.96186 14.6774 8.06446 14.6447 8.17654C14.612 8.28862 14.597 8.40793 14.6007 8.52751C14.6043 8.64708 14.6266 8.76451 14.6661 8.87295C14.7056 8.98139 14.7616 9.07866 14.8307 9.15908L17.5242 12.4063H8.04691C7.61178 12.4063 7.19448 12.1849 6.8868 11.7908C6.57912 11.3967 6.40627 10.8621 6.40627 10.3047V4.90068C6.40627 4.6618 6.33219 4.43271 6.20032 4.2638C6.06846 4.09489 5.88962 4 5.70313 4C5.51665 4 5.33781 4.09489 5.20594 4.2638C5.07408 4.43271 5 4.6618 5 4.90068V10.3047C5 11.3399 5.32101 12.3326 5.89242 13.0645C6.46383 13.7965 7.23882 14.2077 8.04691 14.2077H17.5242Z" fill="white"/>
</svg>
