<svg width="24" height="24" viewBox="0 0 24 24" fill="none" xmlns="http://www.w3.org/2000/svg">
<path d="M7.47579 14.2077L10.1693 17.4549C10.3011 17.6198 10.3771 17.8444 10.381 18.0804C10.3849 18.3163 10.3163 18.5448 10.19 18.7167C10.0637 18.8885 9.88978 18.99 9.70566 18.9993C9.52155 19.0086 9.34195 18.9249 9.2055 18.7663L5.22108 13.9627C5.15127 13.8785 5.09565 13.7769 5.05763 13.6641C5.01961 13.5514 5 13.4298 5 13.307C5 13.1842 5.01961 13.0626 5.05763 12.9499C5.09565 12.8371 5.15127 12.7355 5.22108 12.6513L9.2055 7.84769C9.27234 7.76409 9.35151 7.69839 9.4384 7.65442C9.52528 7.61045 9.61814 7.5891 9.71153 7.59162C9.80493 7.59414 9.897 7.62047 9.98236 7.66908C10.0677 7.71769 10.1447 7.7876 10.2087 7.87473C10.2727 7.96186 10.3226 8.06446 10.3553 8.17654C10.388 8.28862 10.403 8.40793 10.3993 8.52751C10.3957 8.64708 10.3734 8.76451 10.3339 8.87295C10.2944 8.98139 10.2384 9.07866 10.1693 9.15908L7.47579 12.4063H16.9531C17.3882 12.4063 17.8055 12.1849 18.1132 11.7908C18.4209 11.3967 18.5937 10.8621 18.5937 10.3047V4.90068C18.5937 4.6618 18.6678 4.43271 18.7997 4.2638C18.9315 4.09489 19.1104 4 19.2969 4C19.4833 4 19.6622 4.09489 19.7941 4.2638C19.9259 4.43271 20 4.6618 20 4.90068V10.3047C20 11.3399 19.679 12.3326 19.1076 13.0645C18.5362 13.7965 17.7612 14.2077 16.9531 14.2077H7.47579Z" fill="white"/>
</svg>
